<svg width="24" height="15" fill="none" xmlns="http://www.w3.org/2000/svg"><path fill-rule="evenodd" clip-rule="evenodd" d="M14.814 6.517c.07.371.12.743.12 1.225 0 4.209-2.822 7.192-7.071 7.192A7.36 7.36 0 01.5 7.571 7.36 7.36 0 017.863.21c1.989 0 3.646.723 4.932 1.928l-2 1.919C10.254 3.534 9.3 2.92 7.864 2.92c-2.511 0-4.56 2.079-4.56 4.65 0 2.572 2.049 4.651 4.56 4.651 2.913 0 4.007-2.1 4.178-3.174H7.863v-2.53h6.95zm6.73 0h2.099v2.11h-2.1v2.098h-2.109V8.627h-2.1v-2.11h2.1V4.418h2.11v2.1z" fill="#5E6648"/></svg>