<svg width="17" height="15" fill="none" xmlns="http://www.w3.org/2000/svg"><path fill-rule="evenodd" clip-rule="evenodd" d="M.841 4.85h3.315v9.954H.841V4.849zM2.52.057c1.135 0 1.838.743 1.848 1.718.01.954-.713 1.717-1.868 1.717h-.02C1.364 3.493.65 2.73.65 1.776.65.8 1.394.058 2.52.058zm9.753 4.56c2.18 0 3.807 1.427 3.807 4.48v5.706h-3.305V9.48c0-1.336-.482-2.25-1.677-2.25-.914 0-1.457.613-1.698 1.205-.08.221-.11.513-.11.814v5.555H5.984c.04-9.02 0-9.955 0-9.955H9.29v1.415c.436-.681 1.223-1.646 2.983-1.646z" fill="#FFF"/></svg>