<svg width="17" height="13" fill="none" xmlns="http://www.w3.org/2000/svg"><path fill-rule="evenodd" clip-rule="evenodd" d="M14.187 2.172a6.505 6.505 0 001.869-.502 6.974 6.974 0 01-1.628 1.677c.01.14.01.281.01.422 0 4.289-3.264 9.231-9.23 9.231a9.168 9.168 0 01-4.983-1.457c.261.03.512.04.784.04a6.497 6.497 0 004.028-1.386 3.25 3.25 0 01-3.034-2.25c.201.03.402.05.613.05.291 0 .582-.04.854-.11A3.245 3.245 0 01.868 4.703v-.04c.432.241.934.392 1.467.412A3.242 3.242 0 01.888 2.373c0-.603.16-1.155.442-1.638a9.222 9.222 0 006.69 3.396 3.662 3.662 0 01-.08-.744A3.243 3.243 0 0111.184.143c.934 0 1.778.392 2.37 1.024a6.388 6.388 0 002.06-.783 3.236 3.236 0 01-1.427 1.788z" fill="#FFF"/></svg>