<svg width="24" height="15" viewBox="0 0 24 15" fill="none" xmlns="http://www.w3.org/2000/svg">
<path fill-rule="evenodd" clip-rule="evenodd" d="M14.8136 6.51678C14.8839 6.88843 14.9342 7.26008 14.9342 7.74222C14.9342 11.9509 12.1116 14.9342 7.86272 14.9342C3.79464 14.9342 0.5 11.6395 0.5 7.57146C0.5 3.50338 3.79464 0.20874 7.86272 0.20874C9.85156 0.20874 11.5089 0.931955 12.7946 2.13731L10.7958 4.05584C10.2533 3.53352 9.29911 2.92079 7.86272 2.92079C5.35156 2.92079 3.30246 5.00004 3.30246 7.57146C3.30246 10.1429 5.35156 12.2221 7.86272 12.2221C10.7757 12.2221 11.8705 10.1228 12.0413 9.04803H7.86272V6.51678H14.8136ZM21.5435 6.51678H23.6429V8.62615H21.5435V10.7255H19.4342V8.62615H17.3348V6.51678H19.4342V4.41745H21.5435V6.51678Z" fill="#5E6648"/>
</svg>
