<svg width="17" height="15" viewBox="0 0 17 15" fill="none" xmlns="http://www.w3.org/2000/svg">
<path fill-rule="evenodd" clip-rule="evenodd" d="M0.841232 4.8494H4.15598V14.8036H0.841232V4.8494ZM2.51869 0.0581055C3.65373 0.0581055 4.35686 0.801409 4.36691 1.77574C4.37695 2.72998 3.65373 3.49337 2.4986 3.49337H2.47852C1.36356 3.49337 0.650391 2.72998 0.650391 1.77574C0.650391 0.801409 1.39369 0.0581055 2.51869 0.0581055ZM12.272 4.61837C14.4517 4.61837 16.079 6.04471 16.079 9.09829V14.8036H12.7743V9.47998C12.7743 8.14404 12.2921 7.22998 11.0968 7.22998C10.1828 7.22998 9.64035 7.8427 9.39928 8.43534C9.31891 8.65632 9.28879 8.94761 9.28879 9.24895V14.8036H5.9841C6.02428 5.78355 5.9841 4.8494 5.9841 4.8494H9.28879V6.26423C9.72484 5.58257 10.5115 4.61837 12.272 4.61837Z" fill="#5E6648"/>
</svg>
