<svg width="17" height="13" viewBox="0 0 17 13" fill="none" xmlns="http://www.w3.org/2000/svg">
<path fill-rule="evenodd" clip-rule="evenodd" d="M14.1873 2.17184C14.8402 2.10153 15.473 1.92072 16.0556 1.66961C15.6136 2.31247 15.0612 2.88501 14.4283 3.34706C14.4384 3.48769 14.4384 3.62831 14.4384 3.76894C14.4384 8.058 11.1739 13 5.20736 13C3.36919 13 1.6616 12.4676 0.22522 11.5435C0.486382 11.5736 0.737498 11.5837 1.0087 11.5837C2.52544 11.5837 3.92165 11.0714 5.0366 10.1975C3.61027 10.1674 2.41495 9.23322 2.00312 7.94751C2.20402 7.97764 2.40491 7.99773 2.61585 7.99773C2.90714 7.99773 3.19844 7.95755 3.46964 7.88724C1.98303 7.5859 0.868078 6.2801 0.868078 4.70309V4.66291C1.3 4.90398 1.80223 5.05465 2.3346 5.07474C1.46071 4.49215 0.888167 3.49773 0.888167 2.37273C0.888167 1.77005 1.04888 1.2176 1.33013 0.735457C2.92723 2.70421 5.3279 3.98992 8.01986 4.13055C7.96964 3.88947 7.93951 3.63836 7.93951 3.38724C7.93951 1.5993 9.38594 0.142822 11.1839 0.142822C12.1181 0.142822 12.9618 0.534563 13.5545 1.16738C14.2877 1.02675 14.9908 0.755545 15.6136 0.383894C15.3725 1.13724 14.8603 1.77005 14.1873 2.17184Z" fill="#FFFFFF"/>
</svg>
